<?xml version="1.0" standalone="no"?>
<!DOCTYPE svg PUBLIC "-//W3C//DTD SVG 20010904//EN"
 "http://www.w3.org/TR/2001/REC-SVG-20010904/DTD/svg10.dtd">
<svg version="1.0" xmlns="http://www.w3.org/2000/svg"
 width="513.000000pt" height="513.000000pt" viewBox="0 0 513.000000 513.000000"
 preserveAspectRatio="xMidYMid meet">
<metadata>
Created by potrace 1.14, written by Peter Selinger 2001-2017
</metadata>
<g transform="translate(0.000000,513.000000) scale(0.100000,-0.100000)"
fill="#000000" stroke="none">
<path d="M2330 5089 c-30 -4 -80 -10 -110 -14 -44 -5 -175 -30 -260 -50 -320
-74 -719 -240 -968 -401 -97 -63 -85 -54 -187 -141 -300 -255 -534 -632 -631
-1018 -28 -110 -37 -208 -38 -380 -1 -210 4 -267 34 -388 55 -215 166 -358
353 -454 60 -31 256 -99 307 -107 17 -2 24 -9 23 -22 -5 -51 -16 -392 -15
-489 0 -123 12 -437 17 -445 2 -3 6 -41 10 -85 4 -44 9 -89 11 -100 2 -11 9
-49 15 -85 8 -54 17 -98 33 -165 10 -41 28 -103 35 -120 5 -11 16 -40 25 -65
24 -69 99 -190 147 -238 39 -39 168 -122 190 -122 5 0 17 -4 27 -9 60 -31 268
-91 372 -106 24 -4 47 -8 50 -10 3 -2 32 -6 65 -10 33 -4 78 -9 100 -12 22 -2
54 -6 70 -8 206 -25 696 -25 895 0 19 2 55 7 80 10 96 12 238 38 310 57 41 11
80 20 85 22 6 1 15 4 20 7 6 4 23 9 39 13 73 18 202 92 259 150 32 32 63 68
68 80 5 12 13 28 19 36 56 86 124 331 144 525 28 260 28 830 0 1020 -15 106
-17 102 42 110 139 18 303 56 412 96 216 78 357 209 470 435 40 79 97 237 107
297 4 18 10 51 16 75 22 98 29 292 15 412 -5 36 -10 68 -12 71 -2 3 -6 20 -9
38 -28 162 -205 487 -380 696 -159 191 -352 367 -525 481 -100 65 -323 178
-425 214 -167 60 -210 74 -330 106 -143 37 -310 69 -480 88 -122 15 -409 18
-495 5z"/>
</g>
</svg>
